<svg width="512" height="512" xmlns="http://www.w3.org/2000/svg">
 <g>
  <title>background</title>
  <rect x="-1" y="-1" width="321.999174" height="321.999174" id="canvas_background" fill="none"/>
 </g>

 <g>
  <title>Layer 1</title>
  <path d="m455.37319,128.20748l-77.02717,0l-46.10219,-46.55864c0,0 -0.22823,-0.22823 -0.34234,-0.22823l-0.22823,-0.22823l0,0c-6.84686,-6.84686 -16.09012,-11.18321 -26.58864,-11.18321l-95.85604,0c-11.1832,0 -21.11115,4.79281 -28.07212,12.43847l0,0.11411l-45.07516,45.64573l-78.73889,0c-21.22526,0 -38.34241,16.66069 -38.34241,37.88596l0,230.62506c0,21.22526 17.11715,38.45652 38.34241,38.45652l398.03078,0c21.11115,0 38.34241,-17.23126 38.34241,-38.45652l0,-230.62506c0,-21.22527 -17.23126,-37.88596 -38.34241,-37.88596zm-199.01539,249.33981c-58.08419,0 -105.44164,-47.47156 -105.44164,-105.66987c0,-58.31242 47.35745,-105.66987 105.44164,-105.66987c58.19831,0 105.44164,47.35745 105.44164,105.66987c0,58.19831 -47.24333,105.66987 -105.44164,105.66987zm191.82619,-188.28864c-8.7868,0 -15.97601,-7.18921 -15.97601,-16.09012s7.18921,-16.09012 15.97601,-16.09012c8.7868,0 15.97601,7.1892 15.97601,16.09012s-7.18921,16.09012 -15.97601,16.09012z" id="svg_2" fill="#8c3718" stroke="null"/>
  <path d="m257.49725,181.20183c-50.97928,0 -92.18532,41.33812 -92.18532,92.44946c0,50.97928 41.20604,92.44947 92.18532,92.44947c50.8472,0 92.18532,-41.33812 92.18532,-92.44947c0,-51.11134 -41.33812,-92.44946 -92.18532,-92.44946z" id="svg_3" fill="#8c3718" stroke="null"/>
 </g>
</svg>