<svg width="24" height="24" xmlns="http://www.w3.org/2000/svg">

 <g>
  <title>background</title>
  <rect fill="none" id="canvas_background" height="402" width="582" y="-1" x="-1"/>
 </g>
 <g>
  <title>Layer 1</title>
  <path fill="#34cb79" id="svg_3" d="m16,19l-8,0c-1.654,0 -3,-1.346 -3,-3l0,-8c0,-1.654 1.346,-3 3,-3l5,0c0.553,0 1,0.448 1,1s-0.447,1 -1,1l-5,0c-0.552,0 -1,0.449 -1,1l0,8c0,0.551 0.448,1 1,1l8,0c0.552,0 1,-0.449 1,-1l0,-3c0,-0.552 0.447,-1 1,-1s1,0.448 1,1l0,3c0,1.654 -1.346,3 -3,3z"/>
  <path fill="#34cb79" id="svg_6" d="m13.166,14.833c-0.35,0 -0.689,-0.139 -0.941,-0.391l-2.668,-2.667c-0.52,-0.521 -0.52,-1.365 0,-1.885c0.521,-0.521 1.365,-0.521 1.887,0l1.416,1.417l3.475,-5.455c0.357,-0.644 1.17,-0.877 1.814,-0.519c0.643,0.358 0.875,1.17 0.518,1.813l-4.334,7c-0.203,0.366 -0.566,0.615 -0.98,0.673c-0.064,0.01 -0.124,0.014 -0.187,0.014z"/>
 </g>
</svg>