<svg width="512" height="512" xmlns="http://www.w3.org/2000/svg">

 <g>
  <title>background</title>
  <rect fill="none" id="canvas_background" height="402" width="582" y="-1" x="-1"/>
 </g>
 <g>
  <title>Layer 1</title>
  <path fill="#0474b9" clip-rule="evenodd" fill-rule="evenodd" id="svg_2" d="m111.311377,301.73l0,-91.461c0,-6.092 4.987,-11.076 11.076,-11.076l76.027,0l0,-76.028c0,-6.091 4.987,-11.076 11.076,-11.076l91.465,0c6.095,0 11.076,4.984 11.076,11.076l0,76.028l76.027,0c6.095,0 11.076,4.984 11.076,11.076l0,91.461c0,6.096 -4.981,11.082 -11.076,11.082l-76.027,0l0,76.021c0,6.09 -4.981,11.076 -11.076,11.076l-91.465,0c-6.089,0 -11.076,-4.986 -11.076,-11.076l0,-76.021l-76.027,0c-6.089,0.001 -11.076,-4.986 -11.076,-11.082" class="st1"/>
 </g>
</svg>