<?xml version="1.0" encoding="utf-8"?>
<!-- Generator: Adobe Illustrator 23.0.2, SVG Export Plug-In . SVG Version: 6.00 Build 0)  -->
<svg version="1.1" id="Camada_1" xmlns="http://www.w3.org/2000/svg" xmlns:xlink="http://www.w3.org/1999/xlink" x="0px" y="0px"
	 viewBox="0 0 512 512" style="enable-background:new 0 0 512 512;" xml:space="preserve">
<style type="text/css">
	.st0{fill:#8C3718;}
	.st1{opacity:0.3;fill:#8C3718;}
	.st2{opacity:0.5;fill:#8C3718;}
	.st3{font-family:'ArtifaktElement-BoldItalic';}
	.st4{font-size:55.5899px;}
	.st5{letter-spacing:5.25;}
</style>
<g>
	<polygon class="st0" points="237.23,104.3 237.23,308.35 227.57,308.35 227.57,128.15 216.58,128.15 211.59,128.57 211.49,125.7 
		211.89,110.93 	"/>
	<path class="st0" d="M204.45,128.14c0,0,0.29-14.56-6.3-29.14c0,0-57,3.01-97.27,39.75L204.45,128.14z"/>
	<path class="st0" d="M192.58,308.56c-1.71,16.29-14.41,28.95-29.83,28.95c-14.79,0-27.07-11.64-29.57-26.97
		C150.75,310.52,170.7,309.99,192.58,308.56z"/>
	<path class="st0" d="M213.4,132.13l-4.8,0.41l-8.34,0.73l-90.51,7.77c0,0-46.07,2.54-53.74,45.81c0,0-9.2,68.73-6.52,109.96
		c0.32,4.89,3.52,8.75,7.57,9.2c11.84,1.31,38.63,3.72,76.19,3.7c-0.3-1.88-0.45-3.82-0.45-5.8c0-18.27,13.52-33.08,30.22-33.08
		s30.23,14.81,30.23,33.08c0,1.29-0.06,2.56-0.2,3.8c9.93-0.65,20.24-1.49,30.91-2.53V132.13H213.4z M152.1,210.2
		c-0.53,1.31-1.58,2.2-2.78,2.4l-46.9,7.77c-3.29,0.55-6.59,0.81-9.91,0.81H70.71c-1.6,0-2.92-1.54-2.95-3.47
		c-0.14-9.75,2.62-36.9,37.1-41.06l63.24-5.09L152.1,210.2z"/>
	<path class="st1" d="M374.77,304.38h42.93c14.41,0,28.49-4.66,39-13.6c2.8-2.38,5.27-4.95,7.18-7.6
		c5.15-7.15,7.64-18.95,7.41-27.67l-2.24-85.58c-0.27-10.46-4.47-20.59-12.18-27.91c-7.8-7.42-17.94-12.27-26.56-13.42l-63.98-4.43"
		/>
	<path class="st2" d="M348.23,304.38h42.93c14.41,0,28.49-4.66,39-13.6c2.8-2.38,5.27-4.95,7.18-7.6
		c5.15-7.15,7.64-18.95,7.41-27.67l-2.24-85.58c-0.27-10.46-4.47-20.59-12.18-27.91c-7.8-7.42-17.94-12.27-26.56-13.42l-36.41-4.43"
		/>
	<path class="st0" d="M240.85,121.7v171.85c0,7.87,5.61,13.98,11.99,13.04l130.2-2.05c11.8-0.19,22.17-8.73,25.52-21.15
		c2.64-9.78,3.78-20.9,3.61-28.51l-2.05-92.02c-0.1-4.27-0.88-8.56-2.31-12.68c-5.05-14.57-17.61-24.38-31.75-25.74l-126.48-12.2
		C244.94,111.55,240.85,115.98,240.85,121.7z"/>
	<path class="st0" d="M355.45,308.19c0.01,0.34,0.02,0.68,0.02,1.02c0,15.63-12.42,28.29-27.75,28.29s-27.75-12.67-27.75-28.29"/>
</g>
<text transform="matrix(0.9532 0 0 1 78.5217 385.2497)" class="st0 st3 st4 st5">FreteSeguro</text>
</svg>
