<svg width="30" height="30" xmlns="http://www.w3.org/2000/svg">

 <g>
  <title>background</title>
  <rect fill="none" id="canvas_background" height="402" width="582" y="-1" x="-1"/>
 </g>
 <g>
  <title>Layer 1</title>
  <polygon fill="#0474b9" id="svg_1" points="19,5.2280039601027966 11,6.841003876179457 11,24.84000490233302 19,23.24300478026271 "/>
  <path fill="#0474b9" id="svg_2" d="m9,6.752004l-5.606,-1.642c-0.132,-0.042 -0.254,-0.067 -0.394,-0.067c-0.552,0 -1,0.448 -1,1l0,16c0,0.466 0.325,0.84 0.757,0.951l6.243,1.803l0,-18.045z"/>
  <path fill="#0474b9" id="svg_3" d="m27.218,7.044l-6.218,-1.794l0,18.042l5.681,1.644c0.101,0.034 0.206,0.064 0.319,0.064c0.552,0 1,-0.448 1,-1l0,-16c0,-0.475 -0.341,-0.821 -0.782,-0.956z"/>
 </g>
</svg>