<?xml version="1.0" encoding="UTF-8"?>
<svg xmlns="http://www.w3.org/2000/svg" xmlns:xlink="http://www.w3.org/1999/xlink" width="384pt" height="384pt" viewBox="0 0 384 384" version="1.1">
<g id="surface1">
<path style=" stroke:none;fill-rule:nonzero;fill:rgb(62.352941%,83.921569%,38.039216%);fill-opacity:1;" d="M 265 198 C 265 198 111.574219 198 105.84375 198 C 100.125 198 95.53125 200.71875 94.09375 205.113281 C 88.25 223.011719 73.300781 268.71875 72.105469 272.144531 C 69.9375 278.300781 73.1875 291 90.1875 291 C 107.1875 291 198 291 198 291 Z M 265 198 "/>
<path style=" stroke:none;fill-rule:nonzero;fill:rgb(28.235294%,75.294118%,92.156863%);fill-opacity:1;" d="M 193.8125 238.917969 L 76.480469 286.699219 C 76.480469 286.699219 80.800781 291 89.199219 291 C 95.917969 291 242.292969 291 300.46875 291 C 316.261719 291 319.074219 278.199219 317.574219 272.863281 C 266.949219 258.625 193.8125 238.917969 193.8125 238.917969 Z M 193.8125 238.917969 "/>
<path style=" stroke:none;fill-rule:nonzero;fill:rgb(80%,81.960784%,85.098039%);fill-opacity:1;" d="M 290.449219 199.511719 L 200.011719 236.363281 C 200.011719 236.363281 294 269 317.949219 277.113281 C 318.042969 275.625 317.894531 273.96875 317.40625 272.144531 C 309.136719 247.28125 295.894531 206.457031 295.167969 204.3125 C 294.09375 201.1875 290.449219 199.511719 290.449219 199.511719 Z M 290.449219 199.511719 "/>
<path style=" stroke:none;fill-rule:nonzero;fill:rgb(100%,81.176471%,27.843137%);fill-opacity:1;" d="M 76.417969 286.5625 C 79.832031 285.175781 261.863281 211.15625 290.457031 199.53125 C 288.6875 198.449219 284.34375 198 284.34375 198 L 265 198 L 71.800781 273 C 71.800781 273 69.6875 280.375 76.417969 286.5625 Z M 76.417969 286.5625 "/>
<path style=" stroke:none;fill-rule:nonzero;fill:rgb(96.078431%,96.862745%,98.039216%);fill-opacity:1;" d="M 183.738281 242.925781 C 183.738281 242.925781 311.824219 286.863281 312.5625 287.074219 C 315.613281 285.28125 318.1875 279.699219 317.949219 275.886719 C 314.738281 274.800781 201.1875 235.875 201.1875 235.875 Z M 183.738281 242.925781 "/>
<path style=" stroke:none;fill-rule:nonzero;fill:rgb(93.72549%,32.54902%,38.431373%);fill-opacity:1;" d="M 190.5 87 C 163.167969 87 141 109.167969 141 136.5 C 141 149.5 154.011719 170.761719 165.75 190.625 C 178.699219 212.53125 190.5 232.5 190.5 232.5 C 190.5 232.5 204.605469 208.261719 219 183 C 229.0625 165.355469 240 147.832031 240 136.5 C 240 109.167969 217.832031 87 190.5 87 Z M 190.5 153 C 183.042969 153 177 146.949219 177 139.5 C 177 132.050781 183.042969 126 190.5 126 C 197.957031 126 204 132.050781 204 139.5 C 204 146.949219 197.957031 153 190.5 153 Z M 190.5 153 "/>
</g>
</svg>
