<?xml version="1.0" encoding="UTF-8"?>
<svg xmlns="http://www.w3.org/2000/svg" xmlns:xlink="http://www.w3.org/1999/xlink" width="144pt" height="144pt" viewBox="0 0 144 144" version="1.1">
<g id="surface1">
<path style=" stroke:none;fill-rule:nonzero;fill:rgb(62.352941%,83.921569%,38.039216%);fill-opacity:1;" d="M 99.375 74.25 C 99.375 74.25 41.839844 74.25 39.691406 74.25 C 37.546875 74.25 35.824219 75.269531 35.285156 76.917969 C 33.09375 83.628906 27.488281 100.769531 27.039062 102.054688 C 26.226562 104.363281 27.445312 109.125 33.820312 109.125 C 40.195312 109.125 74.25 109.125 74.25 109.125 Z M 99.375 74.25 "/>
<path style=" stroke:none;fill-rule:nonzero;fill:rgb(28.235294%,75.294118%,92.156863%);fill-opacity:1;" d="M 72.679688 89.59375 L 28.679688 107.511719 C 28.679688 107.511719 30.300781 109.125 33.449219 109.125 C 35.96875 109.125 90.859375 109.125 112.675781 109.125 C 118.597656 109.125 119.652344 104.324219 119.089844 102.324219 C 100.105469 96.984375 72.679688 89.59375 72.679688 89.59375 Z M 72.679688 89.59375 "/>
<path style=" stroke:none;fill-rule:nonzero;fill:rgb(80%,81.960784%,85.098039%);fill-opacity:1;" d="M 108.917969 74.816406 L 75.003906 88.636719 C 75.003906 88.636719 110.25 100.875 119.230469 103.917969 C 119.265625 103.359375 119.210938 102.738281 119.027344 102.054688 C 115.925781 92.730469 110.960938 77.421875 110.6875 76.617188 C 110.285156 75.445312 108.917969 74.816406 108.917969 74.816406 Z M 108.917969 74.816406 "/>
<path style=" stroke:none;fill-rule:nonzero;fill:rgb(100%,81.176471%,27.843137%);fill-opacity:1;" d="M 28.65625 107.460938 C 29.9375 106.941406 98.199219 79.183594 108.921875 74.824219 C 108.257812 74.417969 106.628906 74.25 106.628906 74.25 L 99.375 74.25 L 26.925781 102.375 C 26.925781 102.375 26.132812 105.140625 28.65625 107.460938 Z M 28.65625 107.460938 "/>
<path style=" stroke:none;fill-rule:nonzero;fill:rgb(96.078431%,96.862745%,98.039216%);fill-opacity:1;" d="M 68.902344 91.097656 C 68.902344 91.097656 116.933594 107.574219 117.210938 107.652344 C 118.355469 106.980469 119.320312 104.886719 119.230469 103.457031 C 118.027344 103.050781 75.445312 88.453125 75.445312 88.453125 Z M 68.902344 91.097656 "/>
<path style=" stroke:none;fill-rule:nonzero;fill:rgb(93.72549%,32.54902%,38.431373%);fill-opacity:1;" d="M 71.4375 32.625 C 61.1875 32.625 52.875 40.9375 52.875 51.1875 C 52.875 56.0625 57.753906 64.035156 62.15625 71.484375 C 67.011719 79.699219 71.4375 87.1875 71.4375 87.1875 C 71.4375 87.1875 76.726562 78.097656 82.125 68.625 C 85.898438 62.007812 90 55.4375 90 51.1875 C 90 40.9375 81.6875 32.625 71.4375 32.625 Z M 71.4375 57.375 C 68.640625 57.375 66.375 55.105469 66.375 52.3125 C 66.375 49.519531 68.640625 47.25 71.4375 47.25 C 74.234375 47.25 76.5 49.519531 76.5 52.3125 C 76.5 55.105469 74.234375 57.375 71.4375 57.375 Z M 71.4375 57.375 "/>
</g>
</svg>
