<svg width="512" height="512" xmlns="http://www.w3.org/2000/svg">

 <g>
  <title>background</title>
  <rect fill="none" id="canvas_background" height="402" width="582" y="-1" x="-1"/>
 </g>
 <g>
  <title>Layer 1</title>
  <polygon fill="#0474b9" id="svg_2" points="258.97751808166504,136.14458847045898 258.97751808166504,340.1945915222168 249.31752967834473,340.1945915222168 249.31752967834473,159.99457931518555 238.32752418518066,159.99457931518555 233.3375186920166,160.41459274291992 233.23752784729004,157.54458236694336 233.6375217437744,142.77458572387695 " class="st0"/>
  <path fill="#0474b9" id="svg_3" d="m226.197522,159.984585c0,0 0.29,-14.56 -6.3,-29.14c0,0 -57,3.01 -97.27,39.75l103.57,-10.61z" class="st0"/>
  <path fill="#0474b9" id="svg_4" d="m214.327522,340.404585c-1.71,16.29 -14.41,28.95 -29.83,28.95c-14.79,0 -27.07,-11.64 -29.57,-26.97c17.57,-0.02 37.52,-0.55 59.4,-1.98z" class="st0"/>
  <path fill="#0474b9" id="svg_5" d="m235.147522,163.974585l-4.8,0.41l-8.34,0.73l-90.51,7.77c0,0 -46.07,2.54 -53.74,45.81c0,0 -9.2,68.73 -6.52,109.96c0.32,4.89 3.52,8.75 7.57,9.2c11.84,1.31 38.63,3.72 76.19,3.7c-0.3,-1.88 -0.45,-3.82 -0.45,-5.8c0,-18.27 13.52,-33.08 30.22,-33.08s30.23,14.81 30.23,33.08c0,1.29 -0.06,2.56 -0.2,3.8c9.93,-0.65 20.24,-1.49 30.91,-2.53l0,-173.05l-10.56,0zm-61.3,78.07c-0.53,1.31 -1.58,2.2 -2.78,2.4l-46.9,7.77c-3.29,0.55 -6.59,0.81 -9.91,0.81l-21.8,0c-1.6,0 -2.92,-1.54 -2.95,-3.47c-0.14,-9.75 2.62,-36.9 37.1,-41.06l63.24,-5.09l-16,38.64z" class="st0"/>
  <path fill="#0474b9" id="svg_8" d="m261.820825,153.544585l0,171.85c0,7.87 5.61,13.98 11.99,13.04l130.2,-2.05c11.8,-0.19 22.17,-8.73 25.52,-21.15c2.64,-9.78 3.78,-20.9 3.61,-28.51l-2.05,-92.02c-0.1,-4.27 -0.88,-8.56 -2.31,-12.68c-5.05,-14.57 -17.61,-24.38 -31.75,-25.74l-126.48,-12.2c-4.64,-0.69 -8.73,3.74 -8.73,9.46z" class="st0"/>
  <path fill="#0474b9" id="svg_9" d="m377.197522,340.034585c0.01,0.34 0.02,0.68 0.02,1.02c0,15.63 -12.42,28.29 -27.75,28.29s-27.75,-12.67 -27.75,-28.29" class="st0"/>
 </g>
</svg>